<svg width='24' height='24' viewBox='0 0 24 24' xmlns='http://www.w3.org/2000/svg' xmlns:xlink='http://www.w3.org/1999/xlink'><rect width='24' height='24' stroke='none' fill='#000000' opacity='0'/>


<g transform="matrix(1 0 0 1 12 12)" >
<path style="stroke: none; stroke-width: 1; stroke-dasharray: none; stroke-linecap: butt; stroke-dashoffset: 0; stroke-linejoin: miter; stroke-miterlimit: 4; fill: rgb(0,0,0); fill-rule: nonzero; opacity: 1;" transform=" translate(-12, -13)" d="M 4.0097656 3 C 2.9179106 3 2.0097656 3.9049841 2.0097656 4.9980469 L 2 23 L 6 19 L 20 19 C 21.093063 19 22 18.093063 22 17 L 22 5 C 22 3.9069372 21.093063 3 20 3 L 4.0097656 3 z M 4.0097656 5 L 20 5 L 20 17 L 5.171875 17 L 4.0039062 18.167969 L 4.0097656 5 z M 11 7 L 11 9 L 13 9 L 13 7 L 11 7 z M 11 11 L 11 15 L 13 15 L 13 11 L 11 11 z" stroke-linecap="round" />
</g>
</svg>