<svg width='24' height='24' viewBox='0 0 24 24' xmlns='http://www.w3.org/2000/svg' xmlns:xlink='http://www.w3.org/1999/xlink'><rect width='24' height='24' stroke='none' fill='#000000' opacity='0'/>


<g transform="matrix(0.5 0 0 0.5 12 12)" >
<path style="stroke: none; stroke-width: 1; stroke-dasharray: none; stroke-linecap: butt; stroke-dashoffset: 0; stroke-linejoin: miter; stroke-miterlimit: 4; fill: rgb(62,66,109); fill-rule: nonzero; opacity: 1;" transform=" translate(-24, -24)" d="M 24 4 C 12.972292 4 4 12.972292 4 24 C 4 27.275316 4.8627078 30.334853 6.2617188 33.064453 L 4.09375 40.828125 C 3.5887973 42.631528 5.3719261 44.41261 7.1757812 43.908203 L 14.943359 41.740234 C 17.671046 43.137358 20.726959 44 24 44 C 35.027708 44 44 35.027708 44 24 C 44 12.972292 35.027708 4 24 4 z M 24 7 C 33.406292 7 41 14.593708 41 24 C 41 33.406292 33.406292 41 24 41 C 20.997029 41 18.192258 40.218281 15.744141 38.853516 C 15.398478925355807 38.66064301538397 14.990596567852025 38.61220247892856 14.609375 38.71875 L 7.2226562 40.78125 L 9.2851562 33.398438 C 9.391703842342089 33.01721648439125 9.343263449977586 32.6093341295329 9.1503906 32.263672 C 7.7836522 29.813476 7 27.004518 7 24 C 7 14.593708 14.593708 7 24 7 z M 23.976562 12.978516 C 23.148901510673372 12.991446372085091 22.48812720333533 13.6723236642177 22.5 14.5 L 22.5 26.5 C 22.492349565681767 27.040953874866357 22.776562944253993 27.544122046857417 23.243809274571493 27.816831582229785 C 23.711055604888994 28.089541117602153 24.28894439511101 28.089541117602153 24.756190725428507 27.816831582229785 C 25.223437055746007 27.544122046857417 25.507650434318233 27.040953874866357 25.5 26.5 L 25.5 14.5 C 25.505818528115803 14.09438134618371 25.347118847468515 13.703697162002683 25.060089622295813 13.417036087753083 C 24.773060397123114 13.130375013503485 24.38217285196387 12.97217688631442 23.976562 12.978516 z M 24 31 C 22.895430500338414 31 22 31.895430500338414 22 33 C 22 34.10456949966159 22.895430500338414 35 24 35 C 25.104569499661586 35 26 34.10456949966159 26 33 C 26 31.895430500338414 25.104569499661586 31 24 31 z" stroke-linecap="round" />
</g>
</svg>