<svg width='24' height='24' viewBox='0 0 24 24' xmlns='http://www.w3.org/2000/svg' xmlns:xlink='http://www.w3.org/1999/xlink'><rect width='24' height='24' stroke='none' fill='#000000' opacity='0'/>


<g transform="matrix(0.73 0 0 0.73 12 12)" >
<path style="stroke: none; stroke-width: 1; stroke-dasharray: none; stroke-linecap: butt; stroke-dashoffset: 0; stroke-linejoin: miter; stroke-miterlimit: 4; fill: rgb(0,0,0); fill-rule: nonzero; opacity: 1;" transform=" translate(-15, -15.01)" d="M 14 1.3105469 L 10.626953 2.6699219 C 10.248953 2.8229219 10 3.1896562 10 3.5976562 L 10 6.1835938 C 10 6.1835938 6.2177969 5.3476562 6.2167969 5.3476562 C 5.9837969 5.2956562 5.705 5.3380312 5.5 5.4570312 L 3.5 6.6152344 C 3.19 6.7932344 3 7.1244687 3 7.4804688 L 3 22.519531 C 3 22.876531 3.1890469 23.207719 3.4980469 23.386719 L 5.4980469 24.542969 C 5.7100469 24.664969 5.9777969 24.707344 6.2167969 24.652344 L 10 23.816406 L 10 26.431641 C 10 26.839641 10.248953 27.206375 10.626953 27.359375 L 14 28.71875 L 14 24.484375 L 8.3984375 22.173828 C 8.3754375 22.163828 8.3618437 22.145766 8.3398438 22.134766 L 7 22.431641 L 7 7.5683594 L 8.3613281 7.8691406 L 14 5.5449219 L 14 1.3105469 z M 16 1.3105469 L 16 5.5449219 L 21.634766 7.8671875 L 22.990234 7.5683594 L 22.990234 22.429688 L 21.681641 22.140625 L 16 24.486328 L 16 28.71875 L 19.373047 27.361328 C 19.751047 27.208328 20 26.841594 20 26.433594 L 20 23.818359 L 23.775391 24.652344 C 24.004391 24.703344 24.284187 24.661969 24.492188 24.542969 L 26.492188 23.386719 C 26.801188 23.207719 26.990234 22.876531 26.990234 22.519531 L 26.990234 7.4804688 C 26.990234 7.1244687 26.801188 6.7932344 26.492188 6.6152344 L 24.492188 5.4570312 C 24.384187 5.3950312 24.263625 5.3568438 24.140625 5.3398438 C 24.025625 5.3238437 23.888391 5.3207031 23.775391 5.3457031 L 20.001953 6.1816406 L 20.001953 3.5976562 C 20.001953 3.1896563 19.753 2.8229219 19.375 2.6699219 L 16 1.3105469 z M 15 7.2949219 L 11.394531 8.78125 L 14 9.4042969 L 14 11.410156 L 16 11.410156 L 16 9.4042969 L 18.605469 8.78125 L 15 7.2949219 z M 14 11.417969 L 10.863281 11.908203 C 10.376281 11.984203 10.019531 12.403484 10.019531 12.896484 L 10.019531 17.353516 C 10.019531 17.846516 10.376281 18.265797 10.863281 18.341797 L 14 18.832031 L 14 20.625 L 11.394531 21.246094 L 15 22.734375 L 18.605469 21.248047 L 16 20.625 L 16 18.832031 L 19.136719 18.339844 C 19.623719 18.263844 19.980469 17.844562 19.980469 17.351562 L 19.980469 12.894531 C 19.980469 12.401531 19.623719 11.98225 19.136719 11.90625 L 16 11.417969 L 16 18.828125 L 14 18.828125 L 14 11.417969 z" stroke-linecap="round" />
</g>
</svg>