<svg width='24' height='24' viewBox='0 0 24 24' xmlns='http://www.w3.org/2000/svg' xmlns:xlink='http://www.w3.org/1999/xlink'><rect width='24' height='24' stroke='none' fill='#000000' opacity='0'/>


<g transform="matrix(0.42 0 0 0.42 12 12)" >
<g style="" >
<g transform="matrix(1 0 0 1 0 0)" >
<path style="stroke: none; stroke-width: 1; stroke-dasharray: none; stroke-linecap: butt; stroke-dashoffset: 0; stroke-linejoin: miter; stroke-miterlimit: 4; fill: rgb(103,58,183); fill-rule: nonzero; opacity: 1;" transform=" translate(-24, -24)" d="M 42 37 C 42 39.762 39.762 42 37 42 L 11 42 C 8.239 42 6 39.762 6 37 L 6 11 C 6 8.238 8.239 6 11 6 L 37 6 C 39.762 6 42 8.238 42 11 L 42 37 z" stroke-linecap="round" />
</g>
<g transform="matrix(1 0 0 1 0.5 0)" >
<path style="stroke: none; stroke-width: 1; stroke-dasharray: none; stroke-linecap: butt; stroke-dashoffset: 0; stroke-linejoin: miter; stroke-miterlimit: 4; fill: rgb(255,255,255); fill-rule: nonzero; opacity: 1;" transform=" translate(-24.5, -24)" d="M 33.03 25.6 C 32.38 24.700000000000003 31.44 24.080000000000002 30.23 23.75 C 30.23 23.75 31.25 23.38 32.17 22 C 32.72 21.12 33 20.06 33 18.82 C 33 16.67 32.22 15.02 30.66 13.89 C 29.1 12.76 27.34 12 24.35 12 L 15 12 L 15 36 L 25.43 36 C 28.259999999999998 35.98 30.39 35.37 31.84 34.2 C 33.28 33.010000000000005 34 31.250000000000004 34 28.900000000000002 C 34 27.6 33.68 26.5 33.03 25.6 z M 21 16 C 21 16 25.17 16 25.25 16 C 26.77 16 28 17.23 28 18.75 C 28 20.27 26.77 21.5 25.25 21.5 C 25.17 21.5 21 21.5 21 21.5 L 21 16 z M 26 32 L 21 32 L 21 26 L 26 26 C 27.66 26 29 27.34 29 29 C 29 30.66 27.66 32 26 32 z" stroke-linecap="round" />
</g>
</g>
</g>
</svg>