<svg width='24' height='24' viewBox='0 0 24 24' xmlns='http://www.w3.org/2000/svg' xmlns:xlink='http://www.w3.org/1999/xlink'><rect width='24' height='24' stroke='none' fill='#000000' opacity='0'/>


<g transform="matrix(0.5 0 0 0.5 12 12)" >
<path style="stroke: none; stroke-width: 1; stroke-dasharray: none; stroke-linecap: butt; stroke-dashoffset: 0; stroke-linejoin: miter; stroke-miterlimit: 4; fill: rgb(62,66,109); fill-rule: nonzero; opacity: 1;" transform=" translate(-24, -24)" d="M 24 4 C 12.978089 4 4 12.978089 4 24 C 4 35.021911 12.978089 44 24 44 C 26.467989 44 28.840295 43.551029 31.027344 42.730469 C 31.710906253784977 42.49000072863299 32.21095581788503 41.89863545633805 32.33449239185613 41.18461790807658 C 32.45802896582723 40.470600359815116 32.185730811589025 39.745606451543054 31.622694762238275 39.28945652940634 C 31.059658712887526 38.83330660726962 30.293946422763888 38.717344800683385 29.621094 38.986328 C 27.874143 39.641768 25.984011 40 24 40 C 15.139911 40 8 32.860089 8 24 C 8 15.139911 15.139911 8 24 8 C 32.860089 8 40 15.139911 40 24 L 40 26 C 40 28.233332 38.233332 30 36 30 C 33.766668 30 32 28.233332 32 26 L 32 24 L 32 16 C 32.0082341227186 14.9470431475075 31.198701242202308 14.068016454765873 30.14862871750597 13.98969897992328 C 29.098556192809635 13.911381505080685 28.167584310264605 14.660596270751952 28.019531 15.703125 C 26.599543 14.635283 24.883003 14 23 14 C 17.900276 14 14 18.639858 14 24 C 14 29.360142 17.900276 34 23 34 C 25.65593 34 27.979752 32.734767 29.603516 30.771484 C 31.066891 32.723726 33.390945 34 36 34 C 40.394668 34 44 30.394668 44 26 L 44 24 C 44 12.978089 35.021911 4 24 4 z M 23 18 C 25.620276 18 28 20.538142 28 24 C 28 27.461858 25.620276 30 23 30 C 20.379724 30 18 27.461858 18 24 C 18 20.538142 20.379724 18 23 18 z" stroke-linecap="round" />
</g>
</svg>