<svg width='24' height='24' viewBox='0 0 24 24' xmlns='http://www.w3.org/2000/svg' xmlns:xlink='http://www.w3.org/1999/xlink'><rect width='24' height='24' stroke='none' fill='#000000' opacity='0'/>


<g transform="matrix(0.53 0 0 0.53 12 12)" >
<path style="stroke: none; stroke-width: 1; stroke-dasharray: none; stroke-linecap: butt; stroke-dashoffset: 0; stroke-linejoin: miter; stroke-miterlimit: 4; fill: rgb(244,81,30); fill-rule: nonzero; opacity: 1;" transform=" translate(-24, -24)" d="M 42.2 22.1 L 25.9 5.8 C 25.4 5.3 24.7 5 24 5 C 24 5 24 5 24 5 C 23.3 5 22.6 5.3 22.1 5.8 L 18.6 9.3 L 22.700000000000003 13.4 C 23.1 13.200000000000001 23.500000000000004 13.1 24.000000000000004 13.1 C 25.700000000000003 13.1 27.000000000000004 14.4 27.000000000000004 16.1 C 27.000000000000004 16.6 26.900000000000002 17 26.700000000000003 17.400000000000002 L 30.700000000000003 21.400000000000002 C 31.1 21.200000000000003 31.500000000000004 21.1 32 21.1 C 33.7 21.1 35 22.400000000000002 35 24.1 C 35 25.8 33.7 27.1 32 27.1 C 30.3 27.1 29 25.8 29 24.1 C 29 23.6 29.1 23.200000000000003 29.3 22.8 L 25.3 18.8 C 25.2 18.8 25.1 18.900000000000002 25 18.900000000000002 L 25 29.300000000000004 C 26.2 29.700000000000003 27 30.800000000000004 27 32.1 C 27 33.800000000000004 25.7 35.1 24 35.1 C 22.3 35.1 21 33.800000000000004 21 32.1 C 21 30.8 21.8 29.700000000000003 23 29.3 L 23 18.8 C 21.8 18.400000000000002 21 17.3 21 16 C 21 15.5 21.1 15.1 21.3 14.7 L 17.200000000000003 10.6 L 5.8 22.1 C 5.3 22.6 5 23.3 5 24 C 5 24.7 5.3 25.4 5.8 25.9 L 22.1 42.2 C 22.1 42.2 22.1 42.2 22.1 42.2 C 22.6 42.7 23.3 43 24 43 C 24.7 43 25.4 42.7 25.9 42.2 L 42.2 25.900000000000002 C 42.7 25.400000000000002 43 24.700000000000003 43 24.000000000000004 C 43 23.3 42.7 22.6 42.2 22.1 z" stroke-linecap="round" />
</g>
</svg>