<svg width='24' height='24' viewBox='0 0 24 24' xmlns='http://www.w3.org/2000/svg' xmlns:xlink='http://www.w3.org/1999/xlink'><rect width='24' height='24' stroke='none' fill='#000000' opacity='0'/>


<g transform="matrix(0.87 0 0 0.87 12 12)" >
<path style="stroke: rgb(0,0,0); stroke-width: 1; stroke-dasharray: none; stroke-linecap: round; stroke-dashoffset: 0; stroke-linejoin: round; stroke-miterlimit: 4; fill: none; fill-rule: nonzero; opacity: 1;" transform=" translate(-12, -11.72)" d="M 12 0.5 C 6.355223200848844 0.4946762465349289 1.541103193767702 4.587048953333428 0.6374648173943829 10.159029852379254 C -0.26617355897893624 15.731010751425078 3.007856499467426 21.135082641242786 8.364999999999998 22.914 C 8.939 23.014000000000003 9.121 22.677000000000003 9.121 22.373 C 9.121 22.098000000000003 9.127 21.336000000000002 9.121 20.373 C 5.921 21.067 5.26 18.858 5.26 18.858 C 5.0490234622776216 18.1630232054414 4.596431521426327 17.566424737955604 3.983999999999999 17.176000000000002 C 2.94 16.462000000000003 4.062 16.476000000000003 4.062 16.476000000000003 C 4.800662418296985 16.577383630455312 5.451027585980935 17.014405400340557 5.823999999999999 17.660000000000004 C 6.138473611101345 18.2330288021198 6.669054849327121 18.656493525901332 7.29755301952245 18.836064431671428 C 7.926051189717779 19.015635337441523 8.600261906435568 18.936396886501008 9.169999999999998 18.616000000000003 C 9.223054581553438 18.034674581423694 9.481928342368773 17.491394305301647 9.9 17.084 C 7.347 16.791999999999998 4.662 15.806 4.662 11.398 C 4.645790692713522 10.255281455063248 5.070138880275976 9.150185668719171 5.847000000000001 8.312 C 5.4949788796199925 7.320488479176628 5.535043352826231 6.231951050903547 5.959 5.269 C 5.9590000000000005 5.268999999999999 6.926 4.959999999999999 9.121 6.448999999999999 C 11.006154111090783 5.93168343654704 12.995845888909209 5.931683436547039 14.880999999999993 6.448999999999995 C 17.081 4.9609999999999985 18.04 5.268999999999999 18.04 5.268999999999999 C 18.464107438947853 6.231809208669233 18.504880259935945 7.320157403991706 18.154 8.311999999999998 C 18.931059855490297 9.150721558857184 19.35478498651445 10.256776676864439 19.337 11.399999999999995 C 19.337 15.82 16.648 16.791 14.085999999999999 17.074 C 14.642780186586197 17.633469610753643 14.929838220200343 18.40673902785909 14.873 19.194 L 14.873 22.378000000000004 C 14.873 22.685000000000002 15.059 23.025000000000002 15.642999999999999 22.914000000000005 C 21.001597058236698 21.134617004536224 24.275746396503365 15.728244779309652 23.369925550192036 10.155071996102903 C 22.464104703880704 4.581899212896154 17.64629793526529 0.49073159627899443 12 0.5 Z" stroke-linecap="round" />
</g>
</svg>
