<svg width='24' height='24' viewBox='0 0 24 24' xmlns='http://www.w3.org/2000/svg' xmlns:xlink='http://www.w3.org/1999/xlink'><rect width='24' height='24' stroke='none' fill='#000000' opacity='0'/>


<g transform="matrix(0.42 0 0 0.42 12 12)" >
<g style="" >
<g transform="matrix(1 0 0 1 0 0)" >
<path style="stroke: none; stroke-width: 1; stroke-dasharray: none; stroke-linecap: butt; stroke-dashoffset: 0; stroke-linejoin: miter; stroke-miterlimit: 4; fill: rgb(230,81,0); fill-rule: nonzero; opacity: 1;" transform=" translate(-24, -24)" d="M 41 5 L 7 5 L 10 39 L 24 43 L 38 39 L 41 5 L 41 5 z" stroke-linecap="round" />
</g>
<g transform="matrix(1 0 0 1 6.85 -0.05)" >
<path style="stroke: none; stroke-width: 1; stroke-dasharray: none; stroke-linecap: butt; stroke-dashoffset: 0; stroke-linejoin: miter; stroke-miterlimit: 4; fill: rgb(255,109,0); fill-rule: nonzero; opacity: 1;" transform=" translate(-30.85, -23.95)" d="M 24 8 L 24 39.9 L 35.2 36.7 L 37.7 8 z" stroke-linecap="round" />
</g>
<g transform="matrix(1 0 0 1 4.6 0.05)" >
<path style="stroke: none; stroke-width: 1; stroke-dasharray: none; stroke-linecap: butt; stroke-dashoffset: 0; stroke-linejoin: miter; stroke-miterlimit: 4; fill: rgb(255,255,255); fill-rule: nonzero; opacity: 1;" transform=" translate(-28.6, -24.05)" d="M 24 25 L 24 21 L 32.6 21 L 31.900000000000002 32.5 L 24 35.1 L 24 30.900000000000002 L 28.1 29.500000000000004 L 28.400000000000002 25.000000000000004 L 24 25.000000000000004 z M 32.9 17 L 33.199999999999996 13 L 24 13 L 24 17 L 32.9 17 z" stroke-linecap="round" />
</g>
<g transform="matrix(1 0 0 1 -4.55 0.05)" >
<path style="stroke: none; stroke-width: 1; stroke-dasharray: none; stroke-linecap: butt; stroke-dashoffset: 0; stroke-linejoin: miter; stroke-miterlimit: 4; fill: rgb(238,238,238); fill-rule: nonzero; opacity: 1;" transform=" translate(-19.45, -24.05)" d="M 24 30.9 L 24 35.1 L 16.1 32.5 L 15.7 27 L 19.7 27 L 19.9 29.5 L 24 30.9 z M 19.1 17 L 24 17 L 24 13 L 14.9 13 L 15.6 25 L 24 25 L 24 21 L 19.4 21 L 19.1 17 z" stroke-linecap="round" />
</g>
</g>
</g>
</svg>
