<svg width='24' height='24' viewBox='0 0 24 24' xmlns='http://www.w3.org/2000/svg' xmlns:xlink='http://www.w3.org/1999/xlink'><rect width='24' height='24' stroke='none' fill='#000000' opacity='0'/>


<g transform="matrix(0.42 0 0 0.42 12 12)" >
<g style="" >
<g transform="matrix(1 0 0 1 0 0)" >
<path style="stroke: none; stroke-width: 1; stroke-dasharray: none; stroke-linecap: butt; stroke-dashoffset: 0; stroke-linejoin: miter; stroke-miterlimit: 4; fill: rgb(255,214,0); fill-rule: nonzero; opacity: 1;" transform=" translate(-24, -24)" d="M 6 42 L 6 6 L 42 6 L 42 42 L 6 42 z" stroke-linecap="round" />
</g>
<g transform="matrix(1 0 0 1 2.67 6)" >
<path style="stroke: none; stroke-width: 1; stroke-dasharray: none; stroke-linecap: butt; stroke-dashoffset: 0; stroke-linejoin: miter; stroke-miterlimit: 4; fill: rgb(0,0,1); fill-rule: nonzero; opacity: 1;" transform=" translate(-26.67, -30)" d="M 29.538 32.947 C 30.23 34.071000000000005 30.982 35.148 32.575 35.148 C 33.913000000000004 35.148 34.615 34.483000000000004 34.615 33.563 C 34.615 32.462 33.889 32.071000000000005 32.417 31.430000000000003 L 31.610000000000003 31.086000000000002 C 29.281000000000002 30.098000000000003 27.732000000000003 28.860000000000003 27.732000000000003 26.245 C 27.732000000000003 23.835 29.577 22.001 32.46 22.001 C 34.513 22.001 35.988 22.712 37.052 24.574 L 34.538 26.181 C 33.985 25.193 33.38699999999999 24.804000000000002 32.459999999999994 24.804000000000002 C 31.513999999999992 24.804000000000002 30.914999999999992 25.401000000000003 30.914999999999992 26.181 C 30.914999999999992 27.145 31.514999999999993 27.535 32.89999999999999 28.132 L 33.706999999999994 28.476000000000003 C 36.452 29.645 38 30.839 38 33.523 C 38 36.415 35.716 38 32.65 38 C 29.651 38 27.948 36.495 27 34.632 L 29.538 32.947 z M 17.952 33.029 C 18.458000000000002 33.935 19.227 34.632000000000005 20.333000000000002 34.632000000000005 C 21.391000000000002 34.632000000000005 22.000000000000004 34.214000000000006 22.000000000000004 32.589000000000006 L 22.000000000000004 22 L 25.333000000000006 22 L 25.333000000000006 33.101 C 25.333000000000006 36.467999999999996 23.380000000000006 38 20.528000000000006 38 C 17.951000000000008 38 16.091000000000005 36.254 15.333000000000006 34.632 L 17.952 33.029 z" stroke-linecap="round" />
</g>
</g>
</g>
</svg>