<svg width='24' height='24' viewBox='0 0 24 24' xmlns='http://www.w3.org/2000/svg' xmlns:xlink='http://www.w3.org/1999/xlink'><rect width='24' height='24' stroke='none' fill='#000000' opacity='0'/>


<g transform="matrix(0.91 0 0 0.91 12 12)" >
<path style="stroke: none; stroke-width: 1; stroke-dasharray: none; stroke-linecap: butt; stroke-dashoffset: 0; stroke-linejoin: miter; stroke-miterlimit: 4; fill: rgb(255,255,255); fill-rule: nonzero; opacity: 1;" transform=" translate(-14.5, -15.01)" d="M 7 4 C 6.447738123791541 4.0000552179053495 6.000055217905349 4.447738123791542 6 5.000000000000001 L 6 25 C 5.994899710454515 25.360635916577568 6.184375296169332 25.696081364571608 6.495872849714331 25.877887721486516 C 6.80737040325933 26.059694078401428 7.192629596740671 26.059694078401428 7.50412715028567 25.877887721486516 C 7.815624703830668 25.696081364571608 8.005100289545485 25.360635916577568 8 25 L 8 6 L 16.5 6 C 18.997732 6 21 8.0022677 21 10.5 C 21 12.997732 18.997732 15 16.5 15 L 16.140625 15 C 16.040298285852963 14.98463839831513 15.93821771414704 14.98463839831513 15.837891 15 L 11 15 C 10.63936408342243 14.994899710454515 10.303918635428394 15.184375296169332 10.122112278513482 15.495872849714331 C 9.940305921598572 15.80737040325933 9.940305921598572 16.192629596740673 10.122112278513484 16.50412715028567 C 10.303918635428394 16.815624703830668 10.639364083422432 17.005100289545485 11 17 L 15.410156 17 L 20.125 25.486328 C 20.298720434775753 25.798989424217268 20.62606048278472 25.99520848593826 20.98369398938181 26.00105917917224 C 21.341327495978895 26.006909872406226 21.674910737862934 25.821503162853105 21.858765421999408 25.51469147667847 C 22.042620106135885 25.20787979050383 22.048808838801808 24.826284288956487 21.875 24.513672 L 17.580078 16.78125 C 20.627249 16.246396 23 13.69568 23 10.5 C 23 6.9217323 20.078268 4 16.5 4 L 7 4 z" stroke-linecap="round" />
</g>
</svg>