<svg width='24' height='24' viewBox='0 0 24 24' xmlns='http://www.w3.org/2000/svg' xmlns:xlink='http://www.w3.org/1999/xlink'><rect width='24' height='24' stroke='none' fill='#000000' opacity='0'/>


<g transform="matrix(0.42 0 0 0.42 12 12)" >
<g style="" >
<g transform="matrix(1 0 0 1 0 0)" >
<path style="stroke: none; stroke-width: 1; stroke-dasharray: none; stroke-linecap: butt; stroke-dashoffset: 0; stroke-linejoin: miter; stroke-miterlimit: 4; fill: rgb(93,64,55); fill-rule: nonzero; opacity: 1;" transform=" translate(-24, -24)" d="M 42 17.3 C 42 37.8 24 44 24 44 C 24 44 6 37.8 6 17.3 C 6 14.8 6.2 12.700000000000001 6.4 11 C 6.7 8.5 8.4 6.5 10.8 5.9 C 13.9 5 18.8 4 24 4 C 29.2 4 34.1 5 37.3 5.9 C 39.699999999999996 6.5 41.4 8.600000000000001 41.699999999999996 11 C 41.8 12.7 42 14.9 42 17.3 z" stroke-linecap="round" />
</g>
<g transform="matrix(1 0 0 1 0 0)" >
<path style="stroke: none; stroke-width: 1; stroke-dasharray: none; stroke-linecap: butt; stroke-dashoffset: 0; stroke-linejoin: miter; stroke-miterlimit: 4; fill: rgb(76,175,80); fill-rule: nonzero; opacity: 1;" transform=" translate(-24, -24)" d="M 24 7 C 28.9 7 33.5 8 36.5 8.8 C 37.7 9.100000000000001 38.5 10.100000000000001 38.7 11.4 C 38.900000000000006 13.3 39 15.3 39 17.3 C 39 32.9 27.5 39.2 24 40.7 C 20.5 39.1 9 32.800000000000004 9 17.300000000000004 C 9 15.300000000000004 9.1 13.300000000000004 9.3 11.400000000000004 C 9.4 10.100000000000003 10.3 9.100000000000005 11.5 8.800000000000004 C 14.5 8 19.1 7 24 7 M 24 4 C 18.8 4 13.9 5 10.7 5.9 C 8.4 6.5 6.6 8.6 6.4 11 C 6.2 12.7 6 14.9 6 17.3 C 6 37.8 24 44 24 44 C 24 44 42 37.8 42 17.3 C 42 14.8 41.8 12.700000000000001 41.6 11 C 41.300000000000004 8.5 39.6 6.5 37.2 5.9 C 34.1 5 29.2 4 24 4 L 24 4 z" stroke-linecap="round" />
</g>
<g transform="matrix(1 0 0 1 0 8)" >
<path style="stroke: none; stroke-width: 1; stroke-dasharray: none; stroke-linecap: butt; stroke-dashoffset: 0; stroke-linejoin: miter; stroke-miterlimit: 4; fill: rgb(220,237,200); fill-rule: nonzero; opacity: 1;" transform=" translate(-24, -32)" d="M 23 28 L 25 28 L 25 36 L 23 36 z" stroke-linecap="round" />
</g>
<g transform="matrix(1 0 0 1 0 -2.5)" >
<path style="stroke: none; stroke-width: 1; stroke-dasharray: none; stroke-linecap: butt; stroke-dashoffset: 0; stroke-linejoin: miter; stroke-miterlimit: 4; fill: rgb(76,175,80); fill-rule: nonzero; opacity: 1;" transform=" translate(-24, -21.5)" d="M 24 10 C 24 10 18 15 18 23 C 18 28.2 21.3 31.5 23 33 L 24 30 L 25 33 C 26.7 31.5 30 28.2 30 23 C 30 15 24 10 24 10 z" stroke-linecap="round" />
</g>
<g transform="matrix(1 0 0 1 -3 -2.5)" >
<path style="stroke: none; stroke-width: 1; stroke-dasharray: none; stroke-linecap: butt; stroke-dashoffset: 0; stroke-linejoin: miter; stroke-miterlimit: 4; fill: rgb(129,199,132); fill-rule: nonzero; opacity: 1;" transform=" translate(-21, -21.5)" d="M 24 10 C 24 10 18 15 18 23 C 18 28.2 21.3 31.5 23 33 L 24 30 L 24 10 z" stroke-linecap="round" />
</g>
</g>
</g>
</svg>