<svg width='24' height='24' viewBox='0 0 24 24' xmlns='http://www.w3.org/2000/svg' xmlns:xlink='http://www.w3.org/1999/xlink'><rect width='24' height='24' stroke='none' fill='#000000' opacity='0'/>


<g transform="matrix(0.83 0 0 0.83 12 12)" >
<path style="stroke: none; stroke-width: 1; stroke-dasharray: none; stroke-linecap: butt; stroke-dashoffset: 0; stroke-linejoin: miter; stroke-miterlimit: 4; fill: rgb(0,0,0); fill-rule: nonzero; opacity: 1;" transform=" translate(-15.99, -15)" d="M 6.9941406 4 C 5.3491708 4 3.9941406 5.3550302 3.9941406 7 L 3.9941406 23 C 3.9941406 24.64497 5.3491708 26 6.9941406 26 L 27.994141 26 L 27.994141 7 L 10.994141 7 L 10.994141 9 L 25.994141 9 L 25.994141 24 L 6.9941406 24 C 6.4291105 24 5.9941406 23.56503 5.9941406 23 C 5.9941406 22.43497 6.4291105 22 6.9941406 22 L 9.9941406 22 L 9.9941406 20 L 9.9941406 4 L 6.9941406 4 z M 6.9941406 6 L 7.9941406 6 L 7.9941406 20 L 6.9941406 20 C 6.6422981 20 6.3090321 20.07394 5.9941406 20.1875 L 5.9941406 7 C 5.9941406 6.4349698 6.4291105 6 6.9941406 6 z M 19 13 L 19 15 L 20.585938 15 L 18 17.585938 L 15 14.585938 L 11.292969 18.292969 L 12.707031 19.707031 L 15 17.414062 L 18 20.414062 L 22 16.414062 L 22 18 L 24 18 L 24 13 L 19 13 z" stroke-linecap="round" />
</g>
</svg>