<svg width='24' height='24' viewBox='0 0 24 24' xmlns='http://www.w3.org/2000/svg' xmlns:xlink='http://www.w3.org/1999/xlink'><rect width='24' height='24' stroke='none' fill='#000000' opacity='0'/>


<g transform="matrix(0.77 0 0 0.77 12 12)" >
<path style="stroke: none; stroke-width: 1; stroke-dasharray: none; stroke-linecap: butt; stroke-dashoffset: 0; stroke-linejoin: miter; stroke-miterlimit: 4; fill: rgb(0,0,0); fill-rule: nonzero; opacity: 1;" transform=" translate(-13, -13)" d="M 20.265625 4.207031 C 20.023438 3.96875 19.773438 3.722656 19.527344 3.476563 C 19.277344 3.230469 19.035156 2.980469 18.792969 2.734375 C 17.082031 0.988281 16.0625 0 15 0 L 7 0 C 4.796875 0 3 1.796875 3 4 L 3 22 C 3 24.203125 4.796875 26 7 26 L 19 26 C 21.203125 26 23 24.203125 23 22 L 23 8 C 23 6.9375 22.011719 5.917969 20.265625 4.207031 Z M 21 22 C 21 23.105469 20.105469 24 19 24 L 7 24 C 5.894531 24 5 23.105469 5 22 L 5 4 C 5 2.894531 5.894531 2 7 2 L 14.289063 1.996094 C 15.011719 2.179688 15 3.066406 15 3.953125 L 15 7 C 15 7.550781 15.449219 8 16 8 L 19 8 C 19.996094 8 21 8.003906 21 9 Z" stroke-linecap="round" />
</g>
</svg>