<svg width='24' height='24' viewBox='0 0 24 24' xmlns='http://www.w3.org/2000/svg' xmlns:xlink='http://www.w3.org/1999/xlink'><rect width='24' height='24' stroke='none' fill='#000000' opacity='0'/>


<g transform="matrix(0.42 0 0 0.42 12 12)" >
<g style="" >
<g transform="matrix(1 0 0 1 -5.94 -4.5)" >
<path style="stroke: none; stroke-width: 1; stroke-dasharray: none; stroke-linecap: butt; stroke-dashoffset: 0; stroke-linejoin: miter; stroke-miterlimit: 4; fill: rgb(2,119,189); fill-rule: nonzero; opacity: 1;" transform=" translate(-18.06, -19.5)" d="M 24.047 5 C 22.492 5.005 21.414 5.142 20.111 5.367 C 16.263 6.037 15.562000000000001 7.444 15.562000000000001 10.036999999999999 L 15.562000000000001 14 L 24.562 14 L 24.562 16 L 15.22 16 L 10.870000000000001 16 C 8.234000000000002 16 5.927000000000001 17.242 5.196000000000001 20.219 C 4.370000000000001 23.636000000000003 4.333 25.776000000000003 5.196000000000001 29.344 C 5.851 32.005 7.294 34 9.931 34 L 13.562999999999999 34 L 13.562999999999999 28.896 C 13.562999999999999 25.93 16.249 23 19.326999999999998 23 L 26.563 23 C 29.086 23 31.563 21.137999999999998 31.563 18.623 L 31.563 10.037 C 31.563 7.598000000000001 29.804 5.774000000000001 27.345 5.365000000000001 C 27.406 5.359 25.589 4.994 24.047 5 z M 19.063 9 C 19.884 9 20.563 9.677 20.563 10.502 C 20.563 11.335 19.884 12 19.063 12 C 18.226 12 17.563 11.336 17.563 10.502 C 17.563 9.68 18.226 9 19.063 9 z" stroke-linecap="round" />
</g>
<g transform="matrix(1 0 0 1 5.06 4.5)" >
<path style="stroke: none; stroke-width: 1; stroke-dasharray: none; stroke-linecap: butt; stroke-dashoffset: 0; stroke-linejoin: miter; stroke-miterlimit: 4; fill: rgb(255,193,7); fill-rule: nonzero; opacity: 1;" transform=" translate(-29.06, -28.5)" d="M 23.078 43 C 24.633 42.995 25.711 42.858 27.014 42.633 C 30.862 41.963 31.563 40.556000000000004 31.563 37.963 L 31.563 34 L 22.563 34 L 22.563 32 L 31.906 32 L 36.256 32 C 38.892 32 41.199 30.758 41.93 27.781 C 42.756 24.363999999999997 42.793 22.223999999999997 41.93 18.656 C 41.274 15.995 39.831 14 37.194 14 L 33.562000000000005 14 L 33.562000000000005 19.104 C 33.562000000000005 22.07 30.876000000000005 25 27.798000000000005 25 L 20.562000000000005 25 C 18.039000000000005 25 15.562000000000005 26.862000000000002 15.562000000000005 29.377 L 15.562000000000005 37.963 C 15.562000000000005 40.402 17.321000000000005 42.226 19.780000000000005 42.635 C 19.719 42.641 21.536 43.006 23.078 43 z M 28.063 39 C 27.241999999999997 39 26.563 38.323 26.563 37.498 C 26.563 36.665 27.241999999999997 36 28.063 36 C 28.9 36 29.563 36.664 29.563 37.498 C 29.563 38.32 28.899 39 28.063 39 z" stroke-linecap="round" />
</g>
</g>
</g>
</svg>