<svg width='24' height='24' viewBox='0 0 24 24' xmlns='http://www.w3.org/2000/svg' xmlns:xlink='http://www.w3.org/1999/xlink'><rect width='24' height='24' stroke='none' fill='#000000' opacity='0'/>


<g transform="matrix(0.42 0 0 0.42 12 12)" >
<g style="" >
<g transform="matrix(1 0 0 1 0 0)" >
<path style="stroke: none; stroke-width: 1; stroke-dasharray: none; stroke-linecap: butt; stroke-dashoffset: 0; stroke-linejoin: miter; stroke-miterlimit: 4; fill: rgb(209,196,233); fill-rule: nonzero; opacity: 1;" transform=" translate(-24, -24)" d="M 41 4 L 7 4 C 5.895 4 5 4.895 5 6 L 5 14 C 5 15.105 5.895 16 7 16 L 41 16 C 42.105 16 43 15.105 43 14 L 43 6 C 43 4.895 42.105 4 41 4 M 41 18 L 7 18 C 5.895 18 5 18.895 5 20 L 5 28 C 5 29.105 5.895 30 7 30 L 41 30 C 42.105 30 43 29.105 43 28 L 43 20 C 43 18.895 42.105 18 41 18 M 41 32 L 7 32 C 5.895 32 5 32.895 5 34 L 5 42 C 5 43.105 5.895 44 7 44 L 41 44 C 42.105 44 43 43.105 43 42 L 43 34 C 43 32.895 42.105 32 41 32" stroke-linecap="round" />
</g>
<g transform="matrix(1 0 0 1 0 0)" >
<path style="stroke: none; stroke-width: 1; stroke-dasharray: none; stroke-linecap: butt; stroke-dashoffset: 0; stroke-linejoin: miter; stroke-miterlimit: 4; fill: rgb(209,196,233); fill-rule: nonzero; opacity: 1;" transform=" translate(-24, -24)" d="M 24 8 C 15.163444002707305 8 8 15.163444002707305 8 24 C 8 32.83655599729269 15.163444002707305 40 24 40 C 32.83655599729269 40 40 32.83655599729269 40 24 C 40 15.163444002707305 32.83655599729269 8 24 8 Z" stroke-linecap="round" />
</g>
<g transform="matrix(1 0 0 1 0.43 0.84)" >
<path style="stroke: none; stroke-width: 1; stroke-dasharray: none; stroke-linecap: butt; stroke-dashoffset: 0; stroke-linejoin: miter; stroke-miterlimit: 4; fill: rgb(81,45,168); fill-rule: nonzero; opacity: 1;" transform=" translate(-24.43, -24.84)" d="M 18.004 26.389 C 18.004 25.983999999999998 17.900000000000002 25.677 17.693 25.47 C 17.485000000000003 25.262 17.109 25.047 16.562 24.823999999999998 C 15.564000000000002 24.445999999999998 14.846000000000002 24.002999999999997 14.409 23.494 C 13.971 22.986 13.753 22.386 13.753 21.693 C 13.753 20.854000000000003 14.05 20.181 14.645 19.673000000000002 C 15.24 19.164 15.995 18.91 16.911 18.91 C 17.522000000000002 18.91 18.066000000000003 19.039 18.545 19.296 C 19.024 19.554 19.392000000000003 19.916999999999998 19.649 20.387 C 19.906 20.857000000000003 20.035 21.39 20.035 21.987000000000002 L 18.032 21.987000000000002 C 18.032 21.522000000000002 17.933 21.168000000000003 17.735 20.924000000000003 C 17.537 20.681000000000004 17.250999999999998 20.559000000000005 16.877 20.559000000000005 C 16.526 20.559000000000005 16.252 20.663000000000004 16.057 20.870000000000005 C 15.860999999999999 21.078000000000003 15.762999999999998 21.357000000000003 15.762999999999998 21.708000000000006 C 15.762999999999998 21.981000000000005 15.871999999999998 22.229000000000006 16.090999999999998 22.450000000000006 C 16.31 22.671000000000006 16.697 22.899000000000008 17.252999999999997 23.137000000000008 C 18.223999999999997 23.488000000000007 18.928999999999995 23.918000000000006 19.368999999999996 24.42900000000001 C 19.808999999999997 24.940000000000012 20.028999999999996 25.58900000000001 20.028999999999996 26.37700000000001 C 20.028999999999996 27.24300000000001 19.752999999999997 27.92000000000001 19.201999999999998 28.40700000000001 C 18.651 28.894000000000013 17.901 29.138000000000012 16.953 29.138000000000012 C 16.31 29.138000000000012 15.725 29.00600000000001 15.196 28.74200000000001 C 14.667 28.478000000000012 14.254 28.09900000000001 13.955 27.60700000000001 C 13.656 27.11500000000001 13.507 26.53400000000001 13.507 25.86400000000001 L 15.524 25.86400000000001 C 15.524 26.438000000000013 15.636 26.85500000000001 15.859 27.115000000000013 C 16.082 27.375000000000014 16.447 27.505000000000013 16.953 27.505000000000013 C 17.653 27.503 18.004 27.132 18.004 26.389 z M 28.36 24.796 C 28.36 26.442 27.916 27.637999999999998 27.027 28.384999999999998 L 28.401 29.615 L 27.136 30.776999999999997 L 25.304 29.101999999999997 L 24.778 29.135999999999996 C 23.653 29.135999999999996 22.772 28.753999999999994 22.136 27.989999999999995 C 21.5 27.226999999999993 21.18 26.170999999999996 21.176 24.821999999999996 L 21.176 23.262999999999995 C 21.176 21.895999999999994 21.493 20.827999999999996 22.125999999999998 20.059999999999995 C 22.758999999999997 19.291999999999994 23.638999999999996 18.908999999999995 24.764999999999997 18.908999999999995 C 25.863999999999997 18.908999999999995 26.730999999999998 19.277999999999995 27.368999999999996 20.015999999999995 C 28.006999999999994 20.753999999999994 28.337999999999997 21.790999999999993 28.359999999999996 23.125999999999994 L 28.359999999999996 24.796 z M 26.344 23.251 C 26.344 22.344 26.214000000000002 21.674 25.954 21.241 C 25.694 20.808 25.298000000000002 20.592 24.765 20.592 C 24.232 20.592 23.838 20.802999999999997 23.582 21.224 C 23.327 21.646 23.195 22.287 23.186 23.149 L 23.186 24.796 C 23.186 25.707 23.317 26.38 23.579 26.813 C 23.841 27.246 24.241 27.462 24.779 27.462 C 25.303 27.462 25.694 27.247 25.951999999999998 26.816 C 26.209 26.386 26.340999999999998 25.727999999999998 26.345 24.843999999999998 L 26.345 23.251 z M 31.819 27.332 L 35.346 27.332 L 35.346 29 L 29.81 29 L 29.81 19.047 L 31.82 19.047 L 31.82 27.332 z" stroke-linecap="round" />
</g>
</g>
</g>
</svg>