<svg width='24' height='24' viewBox='0 0 24 24' xmlns='http://www.w3.org/2000/svg' xmlns:xlink='http://www.w3.org/1999/xlink'><rect width='24' height='24' stroke='none' fill='#000000' opacity='0'/>


<g transform="matrix(0.43 0 0 0.43 12 12)" >
<linearGradient id="SVGID_iOmQfjoCC4Hw6zVwRjSDha_1" gradientUnits="userSpaceOnUse" gradientTransform="matrix(1 0 0 1 0 0)" x1="21.861" y1="8.237" x2="25.703" y2="36.552">
<stop offset="0%" style="stop-color:rgb(0,193,224);stop-opacity: 1"/>
<stop offset="100%" style="stop-color:rgb(0,155,184);stop-opacity: 1"/>
</linearGradient>
<path style="stroke: none; stroke-width: 1; stroke-dasharray: none; stroke-linecap: butt; stroke-dashoffset: 0; stroke-linejoin: miter; stroke-miterlimit: 4; fill: url(#SVGID_iOmQfjoCC4Hw6zVwRjSDha_1); fill-rule: nonzero; opacity: 1;" transform=" translate(-24, -24)" d="M 24 9.604 C 18.411 9.604 14.653 12.043 12.724 16.921999999999997 C 12.524000000000001 17.426999999999996 13.141 17.842 13.540000000000001 17.472999999999995 C 15.575000000000001 15.590999999999996 17.862000000000002 14.967999999999996 20.400000000000002 15.601999999999995 C 22.226000000000003 16.057999999999996 23.531000000000002 17.382999999999996 24.976000000000003 18.848999999999997 C 27.328 21.236 30.051 24 36 24 C 41.589 24 45.348 21.56 47.275999999999996 16.681 C 47.476 16.176000000000002 46.858999999999995 15.761000000000001 46.459999999999994 16.130000000000003 C 44.425 18.012000000000004 42.13799999999999 18.636000000000003 39.599999999999994 18.002000000000002 C 37.77499999999999 17.546000000000003 36.46999999999999 16.221000000000004 35.02499999999999 14.755000000000003 C 32.672 12.367 29.948 9.604 24 9.604 L 24 9.604 z M 12 24 C 6.411 24 2.6519999999999992 26.44 0.7240000000000002 31.319 C 0.5240000000000002 31.823999999999998 1.1410000000000002 32.239 1.54 31.869999999999997 C 3.575 29.987999999999996 5.862 29.363999999999997 8.4 29.999 C 10.225 30.456 11.530000000000001 31.779999999999998 12.975000000000001 33.245 C 15.328000000000001 35.632999999999996 18.052 38.397 24 38.397 C 29.589 38.397 33.348 35.957 35.275999999999996 31.078 C 35.476 30.573 34.858999999999995 30.157999999999998 34.459999999999994 30.527 C 32.425 32.409 30.137999999999995 33.033 27.599999999999994 32.398 C 25.773999999999994 31.942000000000004 24.468999999999994 30.617000000000004 23.023999999999994 29.152000000000005 C 20.672 26.764 17.949 24 12 24 L 12 24 z" stroke-linecap="round" />
</g>
</svg>